# xmcd
#
# Track frame offsets:
#	150
#	12960
#	26425
#	39432
#	52430
#	65625
#	79985
#	93125
#	106535
#	119295
#	134040
#	147022
#	159637
#	172345
#	185492
#	197385
#	208837
#	220540
#
# Disc length: 3091 seconds
#
# Revision: 1
# Processed by: cddbd v1.5.2PL0 Copyright (c) Steve Scherf et al.
# Submitted via: audiograbber 1.83.01
#
DISCID=020c1112
DTITLE=Big Bill Broonzy - Anthologie
DYEAR=1995
DGENRE=Blues
TTITLE0=Pig Meat Strut
TTITLE1=Big Bill Blues 1932
TTITLE2=Bull Cow Blues
TTITLE3=How You Want It Done
TTITLE4=I'll Be Back Home Again
TTITLE5=Rising Sun Shine On
TTITLE6=Keep Your Hand Off Her
TTITLE7=Big Bill Blues 1936
TTITLE8=I'm A Southern Man
TTITLE9=Southern Flood Blues
TTITLE10=You Do Me Any Old Way
TTITLE11=Louise, Louise Blues
TTITLE12=Sweetheart Land
TTITLE13=New Shake-Em On Down
TTITLE14=Let Me Dig It
TTITLE15=Baby I Done Got Wise
TTITLE16=Just A Dream
TTITLE17=Just Got To Hold You Tight
EXTD=
EXTT0=
EXTT1=
EXTT2=
EXTT3=
EXTT4=
EXTT5=
EXTT6=
EXTT7=
EXTT8=
EXTT9=
EXTT10=
EXTT11=
EXTT12=
EXTT13=
EXTT14=
EXTT15=
EXTT16=
EXTT17=
PLAYORDER=
